<svg width="256" height="248" viewBox="0 0 256 248" fill="none" xmlns="http://www.w3.org/2000/svg">
<g filter="url(#filter0_d_357_455)">
<rect y="16.8276" width="256" height="227.172" rx="21" fill="#D1D8FF"/>
</g>
<rect width="256" height="239.192" rx="21" fill="#FFFEFF"/>
<g filter="url(#filter1_d_357_455)">
<rect x="17" y="51" width="217" height="37" rx="7" fill="#FE8744"/>
</g>
<path d="M227 51C230.866 51 234 54.134 234 58V81C234 84.866 230.866 88 227 88H77L114 51H227Z" fill="#FFBE5E"/>
<path d="M25.598 62.1C25.598 60.8 25.611 59.5 25.65 58.2C26.053 58.187 26.352 58.174 26.781 58.174C27.223 58.174 27.678 58.187 28.12 58.2C28.185 58.2 28.25 58.265 28.25 58.33C28.276 59.552 28.302 60.8 28.302 62.1C28.302 63.4 28.276 64.7 28.25 66C27.834 66.026 27.535 66.039 27.106 66.039C26.664 66.039 26.209 66.026 25.78 66C25.702 66 25.65 65.948 25.65 65.87C25.624 64.648 25.598 63.4 25.598 62.1ZM29.7616 62.1C29.7616 60.8 29.7746 59.5 29.8136 58.2C30.2166 58.187 30.4506 58.174 30.8796 58.174C31.2566 58.174 31.5946 58.187 32.0106 58.2C32.0756 58.213 32.1146 58.265 32.1536 58.33L33.4926 61.658L33.4536 58.2C33.8566 58.187 34.1556 58.174 34.5846 58.174C35.0266 58.174 35.4036 58.187 35.7936 58.2C35.8586 58.213 35.9236 58.265 35.9236 58.33C35.9496 59.552 35.9756 60.8 35.9756 62.1C35.9756 63.4 35.9496 64.7 35.9236 66C35.5596 66.026 35.3386 66.039 34.9096 66.039C34.5196 66.039 34.1426 66.026 33.7266 66C33.6486 66 33.6096 65.948 33.5836 65.87L32.2316 62.555L32.2836 66C31.8676 66.026 31.6336 66.039 31.2046 66.039C30.7626 66.039 30.3596 66.026 29.9436 66C29.8656 66 29.8136 65.948 29.8136 65.87C29.7876 64.648 29.7616 63.4 29.7616 62.1ZM40.029 62.1C40.029 62.737 40.029 63.283 40.042 63.829H40.263C40.614 63.829 40.874 63.647 40.874 62.1C40.874 60.553 40.614 60.384 40.263 60.384H40.042C40.029 60.93 40.029 61.476 40.029 62.1ZM37.455 62.1C37.455 60.8 37.481 59.63 37.481 58.33C38.339 58.2 39.288 58.109 40.016 58.109C42.213 58.109 43.591 59.045 43.591 62.1C43.591 65.35 42.226 66.026 40.042 66.026C39.327 66.026 38.508 65.961 37.611 65.87C37.533 65.87 37.481 65.818 37.481 65.74C37.481 64.518 37.455 63.4 37.455 62.1ZM44.7918 62.1C44.7918 60.8 44.8048 59.5 44.8438 58.2C45.2468 58.187 45.5458 58.174 45.9748 58.174C46.4168 58.174 46.8718 58.187 47.3138 58.2C47.3788 58.2 47.4438 58.265 47.4438 58.33C47.4698 59.552 47.4958 60.8 47.4958 62.1C47.4958 63.4 47.4698 64.7 47.4438 66C47.0278 66.026 46.7288 66.039 46.2998 66.039C45.8578 66.039 45.4028 66.026 44.9738 66C44.8958 66 44.8438 65.948 44.8438 65.87C44.8178 64.648 44.7918 63.4 44.7918 62.1ZM48.4223 58.2C48.8383 58.187 49.1763 58.174 49.6053 58.174C50.0473 58.174 50.4373 58.174 50.8793 58.2C50.9573 58.213 51.0223 58.265 51.0353 58.33C51.3603 59.968 51.5813 61.606 51.8153 63.257C52.0363 61.58 52.2573 59.89 52.5953 58.2C53.0113 58.187 53.2323 58.174 53.6093 58.174C54.0513 58.174 54.5453 58.187 54.9873 58.2C55.0523 58.2 55.1043 58.252 55.1043 58.317C55.1043 58.369 55.0523 58.59 55.0393 58.72C54.6493 61.099 54.1163 63.608 53.5573 66C53.0113 66.026 52.4783 66.039 51.9063 66.039C51.2953 66.039 50.7103 66.026 50.1123 66C50.0473 66 49.9823 65.948 49.9563 65.87C49.3973 63.387 48.8123 60.735 48.4223 58.2ZM56.0388 62.1C56.0388 60.8 56.0518 59.5 56.0908 58.2C56.4938 58.187 56.7928 58.174 57.2218 58.174C57.6638 58.174 58.1188 58.187 58.5608 58.2C58.6258 58.2 58.6908 58.265 58.6908 58.33C58.7168 59.552 58.7428 60.8 58.7428 62.1C58.7428 63.4 58.7168 64.7 58.6908 66C58.2748 66.026 57.9758 66.039 57.5468 66.039C57.1048 66.039 56.6498 66.026 56.2208 66C56.1428 66 56.0908 65.948 56.0908 65.87C56.0648 64.648 56.0388 63.4 56.0388 62.1ZM62.8024 62.1C62.8024 62.737 62.8024 63.283 62.8154 63.829H63.0364C63.3874 63.829 63.6474 63.647 63.6474 62.1C63.6474 60.553 63.3874 60.384 63.0364 60.384H62.8154C62.8024 60.93 62.8024 61.476 62.8024 62.1ZM60.2284 62.1C60.2284 60.8 60.2544 59.63 60.2544 58.33C61.1124 58.2 62.0614 58.109 62.7894 58.109C64.9864 58.109 66.3644 59.045 66.3644 62.1C66.3644 65.35 64.9994 66.026 62.8154 66.026C62.1004 66.026 61.2814 65.961 60.3844 65.87C60.3064 65.87 60.2544 65.818 60.2544 65.74C60.2544 64.518 60.2284 63.4 60.2284 62.1ZM67.3181 62.152C67.3181 60.852 67.3311 59.5 67.3701 58.2C67.7731 58.187 68.0721 58.174 68.5011 58.174C68.9431 58.174 69.3981 58.187 69.8401 58.2C69.9051 58.2 69.9701 58.265 69.9701 58.33C69.9961 59.552 70.0221 61.242 70.0221 62.542C70.0221 63.699 70.1911 63.868 70.5421 63.868C70.8931 63.868 71.0361 63.699 71.0361 62.542C71.0361 61.242 71.0491 59.5 71.0881 58.2C71.4911 58.187 71.7901 58.174 72.2191 58.174C72.6611 58.174 73.1161 58.187 73.5581 58.2C73.6231 58.2 73.6881 58.265 73.6881 58.33C73.7141 59.552 73.7401 60.852 73.7401 62.152C73.7401 64.973 72.6741 66.039 70.8411 66.13C68.4881 66.13 67.3181 65.428 67.3181 62.152ZM74.4723 65.896C74.4723 65.87 74.5113 65.623 74.5373 65.493C74.9273 63.114 75.4733 60.605 75.9543 58.2C76.5393 58.174 77.1373 58.174 77.7483 58.174C78.3723 58.174 78.9833 58.187 79.6073 58.2C79.6723 58.2 79.7373 58.265 79.7503 58.33C80.2443 60.826 80.8553 63.478 81.2323 66C80.8293 66.026 80.5433 66.039 80.1013 66.039C79.6593 66.039 79.2823 66.039 78.8273 66C78.7623 66 78.6973 65.948 78.6843 65.87C78.5933 65.454 78.5153 65.012 78.4503 64.57H77.2413C77.1633 65.051 77.0853 65.532 76.9943 66C76.5783 66.026 76.3443 66.039 75.9153 66.039C75.4733 66.039 75.0183 66.026 74.5893 66C74.5243 66 74.4723 65.961 74.4723 65.896ZM77.4623 62.88H78.1903C78.0473 61.918 77.9173 60.943 77.7873 59.968C77.6703 60.93 77.5663 61.905 77.4623 62.88ZM82.2272 62.1C82.2272 60.8 82.2402 59.5 82.2792 58.2C82.6822 58.187 82.9812 58.174 83.4102 58.174C83.8522 58.174 84.3072 58.187 84.7492 58.2C84.8142 58.2 84.8792 58.265 84.8792 58.33C84.9052 59.552 84.9312 60.8 84.9312 62.1C84.9312 62.685 84.9182 63.244 84.9182 63.79H84.9702C85.4122 63.79 86.5172 63.803 86.9592 63.816C87.0242 63.816 87.0762 63.881 87.0892 63.946C87.0892 64.349 87.0892 64.713 87.0892 65.077C87.0892 65.389 87.0892 65.701 87.0892 66.026C86.6732 66.052 85.5942 66.065 85.1652 66.065C84.7232 66.065 82.8382 66.026 82.4092 66C82.3312 66 82.2792 65.948 82.2792 65.87C82.2532 64.648 82.2272 63.4 82.2272 62.1ZM87.9233 65.922L88.2353 63.582C89.1453 63.868 89.9513 64.037 90.5363 64.037C91.0303 64.037 91.2383 63.777 91.2383 63.569C91.2383 63.309 90.8613 63.205 90.3543 63.062C89.3793 62.789 87.9363 62.373 87.9363 60.371C87.9363 58.265 89.2363 58.109 91.0173 58.109C91.7713 58.109 92.6553 58.226 93.5263 58.395L93.2273 60.566C92.6163 60.293 91.6933 60.033 90.8873 60.033C90.4843 60.033 90.2243 60.163 90.2243 60.397C90.2243 60.631 90.6273 60.748 91.1603 60.904C92.2393 61.229 93.8513 61.71 93.8513 63.517C93.8513 65.584 92.4213 66.065 90.6663 66.065C89.7823 66.065 88.8203 66.026 87.9233 65.922ZM25.598 76.1C25.598 74.8 25.611 73.5 25.65 72.2C26.053 72.187 26.287 72.174 26.716 72.174C27.093 72.174 27.431 72.187 27.847 72.2C27.912 72.213 27.951 72.265 27.99 72.33L29.329 75.658L29.29 72.2C29.693 72.187 29.992 72.174 30.421 72.174C30.863 72.174 31.24 72.187 31.63 72.2C31.695 72.213 31.76 72.265 31.76 72.33C31.786 73.552 31.812 74.8 31.812 76.1C31.812 77.4 31.786 78.7 31.76 80C31.396 80.026 31.175 80.039 30.746 80.039C30.356 80.039 29.979 80.026 29.563 80C29.485 80 29.446 79.948 29.42 79.87L28.068 76.555L28.12 80C27.704 80.026 27.47 80.039 27.041 80.039C26.599 80.039 26.196 80.026 25.78 80C25.702 80 25.65 79.948 25.65 79.87C25.624 78.648 25.598 77.4 25.598 76.1ZM33.0185 76.152C33.0185 74.852 33.0315 73.5 33.0705 72.2C33.4735 72.187 33.7725 72.174 34.2015 72.174C34.6435 72.174 35.0985 72.187 35.5405 72.2C35.6055 72.2 35.6705 72.265 35.6705 72.33C35.6965 73.552 35.7225 75.242 35.7225 76.542C35.7225 77.699 35.8915 77.868 36.2425 77.868C36.5935 77.868 36.7365 77.699 36.7365 76.542C36.7365 75.242 36.7495 73.5 36.7885 72.2C37.1915 72.187 37.4905 72.174 37.9195 72.174C38.3615 72.174 38.8165 72.187 39.2585 72.2C39.3235 72.2 39.3885 72.265 39.3885 72.33C39.4145 73.552 39.4405 74.852 39.4405 76.152C39.4405 78.973 38.3745 80.039 36.5415 80.13C34.1885 80.13 33.0185 79.428 33.0185 76.152ZM40.6536 76.1C40.6536 74.8 40.6666 73.5 40.7056 72.2C41.1086 72.187 41.3426 72.174 41.7716 72.174C42.2136 72.174 42.5126 72.187 42.9026 72.2C42.9676 72.213 43.0196 72.278 43.0456 72.33L44.6706 75.671L46.3086 72.33C46.3476 72.278 46.3996 72.213 46.4646 72.213C46.6986 72.187 47.0106 72.174 47.3746 72.174C47.8166 72.174 48.2196 72.187 48.5836 72.2C48.6486 72.213 48.7136 72.265 48.7136 72.33C48.7396 73.552 48.7656 74.8 48.7656 76.1C48.7656 77.4 48.7396 78.7 48.7136 80C48.3366 80.026 48.1286 80.039 47.6996 80.039C47.3876 80.039 46.9326 80.026 46.5036 80C46.4256 80 46.3736 79.948 46.3736 79.87C46.3476 78.726 46.2956 77.556 46.2956 76.334L44.8136 79.35L44.6706 79.376L44.5406 79.35L43.1236 76.477L43.1756 80C42.7596 80.026 42.5256 80.039 42.0966 80.039C41.7846 80.039 41.2646 80.026 40.8356 80C40.7576 80 40.7056 79.948 40.7056 79.87C40.6796 78.648 40.6536 77.4 40.6536 76.1ZM52.7994 75.06H52.8904C53.2934 75.06 53.6444 74.865 53.6444 74.501C53.6444 74.15 53.3064 73.981 52.9684 73.981C52.9164 73.981 52.8384 73.981 52.8124 73.994C52.7994 74.319 52.7994 74.657 52.7994 75.06ZM52.8124 76.984C52.8124 77.335 52.8254 77.686 52.8384 78.037H53.0464C53.5404 78.037 53.7354 77.842 53.7354 77.504C53.7354 77.205 53.4884 76.984 53.1374 76.984H52.8124ZM50.2514 75.931C50.2514 74.631 50.2774 73.63 50.2774 72.33C51.1354 72.2 52.0844 72.109 52.8124 72.109C54.6194 72.109 55.9454 72.265 55.9454 74.371C55.9454 75.06 55.6594 75.645 55.1914 76.048C55.9064 76.451 56.3354 77.023 56.3354 77.647C56.3354 79.714 54.9314 80.065 53.1764 80.065C52.2924 80.065 51.3044 80.026 50.4074 79.922C50.3294 79.909 50.2774 79.844 50.2774 79.766C50.2774 78.544 50.2514 77.231 50.2514 75.931ZM57.4485 76.1C57.4485 74.8 57.4615 73.5 57.5005 72.2C57.9035 72.187 59.7625 72.174 60.1915 72.174C60.6335 72.174 62.0245 72.187 62.4665 72.2C62.5315 72.2 62.5835 72.265 62.5965 72.33C62.5965 72.733 62.5965 73.097 62.5965 73.461C62.5965 73.773 62.5965 74.085 62.5965 74.41C62.1805 74.436 60.9585 74.436 60.5295 74.436C60.4255 74.436 60.2435 74.436 60.0225 74.436C60.0225 74.657 60.0225 74.891 60.0225 75.125C60.5425 75.125 61.2445 75.138 61.5825 75.138C61.6475 75.138 61.6995 75.203 61.7125 75.268C61.7125 75.632 61.7125 75.944 61.7125 76.256C61.7125 76.529 61.7125 76.802 61.7125 77.114H60.0225C60.0225 77.348 60.0225 77.569 60.0225 77.79H60.1915C60.6335 77.79 62.0505 77.803 62.4925 77.816C62.5575 77.816 62.6095 77.881 62.6225 77.946C62.6225 78.349 62.6225 78.713 62.6225 79.077C62.6225 79.389 62.6225 79.701 62.6225 80.026C62.2065 80.052 60.8155 80.065 60.3865 80.065C59.9445 80.065 58.0595 80.026 57.6305 80C57.5525 80 57.5005 79.948 57.5005 79.87C57.4745 78.648 57.4485 77.4 57.4485 76.1ZM63.8978 75.931C63.8978 74.631 63.9238 73.63 63.9238 72.33C64.7818 72.2 65.8608 72.109 66.5888 72.109C68.5258 72.109 69.8518 72.265 69.8518 74.371C69.8518 75.333 69.3188 76.061 68.4608 76.464C68.7598 76.568 69.0068 76.776 69.1888 77.075C69.6958 78.089 69.9948 79.025 70.2158 80C69.7868 80.052 69.3188 80.078 68.8638 80.078C68.5128 80.078 68.1618 80.065 67.8108 80.039C67.7458 80.039 67.6418 79.987 67.6158 79.909C67.2518 78.804 66.8878 77.699 66.6278 76.802C66.5758 76.802 66.5108 76.802 66.4588 76.802C66.4718 77.868 66.5108 78.986 66.5238 80C66.1338 80.026 65.7568 80.026 65.3798 80.026C64.9378 80.026 64.4958 80.026 64.0538 80C63.9758 80 63.9238 79.948 63.9238 79.87C63.9238 78.648 63.8978 77.231 63.8978 75.931ZM66.4588 75.203H66.6798C67.0828 75.203 67.3688 74.982 67.3688 74.644C67.3688 74.241 67.2388 74.02 66.7708 74.02C66.6668 74.02 66.5498 74.02 66.4588 74.033C66.4588 74.41 66.4588 74.787 66.4588 75.203Z" fill="white"/>
<g filter="url(#filter2_d_357_455)">
<rect x="17" y="101" width="217" height="37" rx="7" fill="#FE8744"/>
</g>
<path d="M227 101C230.866 101 234 104.134 234 108V131C234 134.866 230.866 138 227 138H77L114 101H227Z" fill="#FFBE5E"/>
<path d="M25.598 112.1C25.598 110.8 25.611 109.5 25.65 108.2C26.053 108.187 26.352 108.174 26.781 108.174C27.223 108.174 27.678 108.187 28.12 108.2C28.185 108.2 28.25 108.265 28.25 108.33C28.276 109.552 28.302 110.8 28.302 112.1C28.302 113.4 28.276 114.7 28.25 116C27.834 116.026 27.535 116.039 27.106 116.039C26.664 116.039 26.209 116.026 25.78 116C25.702 116 25.65 115.948 25.65 115.87C25.624 114.648 25.598 113.4 25.598 112.1ZM29.3586 109.188C29.3586 108.876 29.3586 108.551 29.3716 108.2C29.7746 108.187 31.9456 108.174 32.3746 108.174C32.8166 108.174 34.6236 108.187 35.0656 108.2C35.1306 108.2 35.1826 108.265 35.1956 108.33C35.1956 108.707 35.1956 109.071 35.1956 109.448C35.1956 109.76 35.1956 110.085 35.1956 110.41C34.9746 110.423 34.2856 110.436 33.6096 110.436C33.6226 110.969 33.6356 111.502 33.6356 112.1C33.6356 113.4 33.6096 114.7 33.5836 116C33.1676 116.026 32.8686 116.039 32.4396 116.039C31.9976 116.039 31.5426 116.026 31.1136 116C31.0356 116 30.9836 115.948 30.9836 115.87C30.9576 114.648 30.9316 113.4 30.9316 112.1C30.9316 111.502 30.9316 110.969 30.9316 110.423C30.3466 110.41 29.7226 110.397 29.5016 110.384C29.4236 110.384 29.3716 110.332 29.3716 110.254C29.3586 109.89 29.3586 109.539 29.3586 109.188ZM36.261 112.1C36.261 110.8 36.274 109.5 36.313 108.2C36.716 108.187 38.575 108.174 39.004 108.174C39.446 108.174 40.837 108.187 41.279 108.2C41.344 108.2 41.396 108.265 41.409 108.33C41.409 108.733 41.409 109.097 41.409 109.461C41.409 109.773 41.409 110.085 41.409 110.41C40.993 110.436 39.771 110.436 39.342 110.436C39.238 110.436 39.056 110.436 38.835 110.436C38.835 110.657 38.835 110.891 38.835 111.125C39.355 111.125 40.057 111.138 40.395 111.138C40.46 111.138 40.512 111.203 40.525 111.268C40.525 111.632 40.525 111.944 40.525 112.256C40.525 112.529 40.525 112.802 40.525 113.114H38.835C38.835 113.348 38.835 113.569 38.835 113.79H39.004C39.446 113.79 40.863 113.803 41.305 113.816C41.37 113.816 41.422 113.881 41.435 113.946C41.435 114.349 41.435 114.713 41.435 115.077C41.435 115.389 41.435 115.701 41.435 116.026C41.019 116.052 39.628 116.065 39.199 116.065C38.757 116.065 36.872 116.026 36.443 116C36.365 116 36.313 115.948 36.313 115.87C36.287 114.648 36.261 113.4 36.261 112.1ZM42.7104 111.931C42.7104 110.631 42.7364 109.63 42.7364 108.33C43.5944 108.2 44.6734 108.109 45.4014 108.109C47.3384 108.109 48.6644 108.265 48.6644 110.371C48.6644 111.333 48.1314 112.061 47.2734 112.464C47.5724 112.568 47.8194 112.776 48.0014 113.075C48.5084 114.089 48.8074 115.025 49.0284 116C48.5994 116.052 48.1314 116.078 47.6764 116.078C47.3254 116.078 46.9744 116.065 46.6234 116.039C46.5584 116.039 46.4544 115.987 46.4284 115.909C46.0644 114.804 45.7004 113.699 45.4404 112.802C45.3884 112.802 45.3234 112.802 45.2714 112.802C45.2844 113.868 45.3234 114.986 45.3364 116C44.9464 116.026 44.5694 116.026 44.1924 116.026C43.7504 116.026 43.3084 116.026 42.8664 116C42.7884 116 42.7364 115.948 42.7364 115.87C42.7364 114.648 42.7104 113.231 42.7104 111.931ZM45.2714 111.203H45.4924C45.8954 111.203 46.1814 110.982 46.1814 110.644C46.1814 110.241 46.0514 110.02 45.5834 110.02C45.4794 110.02 45.3624 110.02 45.2714 110.033C45.2714 110.41 45.2714 110.787 45.2714 111.203ZM49.5661 115.896C49.5661 115.87 49.6051 115.623 49.6311 115.493C50.0211 113.114 50.5671 110.605 51.0481 108.2C51.6331 108.174 52.2311 108.174 52.8421 108.174C53.4661 108.174 54.0771 108.187 54.7011 108.2C54.7661 108.2 54.8311 108.265 54.8441 108.33C55.3381 110.826 55.9491 113.478 56.3261 116C55.9231 116.026 55.6371 116.039 55.1951 116.039C54.7531 116.039 54.3761 116.039 53.9211 116C53.8561 116 53.7911 115.948 53.7781 115.87C53.6871 115.454 53.6091 115.012 53.5441 114.57H52.3351C52.2571 115.051 52.1791 115.532 52.0881 116C51.6721 116.026 51.4381 116.039 51.0091 116.039C50.5671 116.039 50.1121 116.026 49.6831 116C49.6181 116 49.5661 115.961 49.5661 115.896ZM52.5561 112.88H53.2841C53.1411 111.918 53.0111 110.943 52.8811 109.968C52.7641 110.93 52.6601 111.905 52.5561 112.88ZM56.6261 109.188C56.6261 108.876 56.6261 108.551 56.6391 108.2C57.0421 108.187 59.2131 108.174 59.6421 108.174C60.0841 108.174 61.8911 108.187 62.3331 108.2C62.3981 108.2 62.4501 108.265 62.4631 108.33C62.4631 108.707 62.4631 109.071 62.4631 109.448C62.4631 109.76 62.4631 110.085 62.4631 110.41C62.2421 110.423 61.5531 110.436 60.8771 110.436C60.8901 110.969 60.9031 111.502 60.9031 112.1C60.9031 113.4 60.8771 114.7 60.8511 116C60.4351 116.026 60.1361 116.039 59.7071 116.039C59.2651 116.039 58.8101 116.026 58.3811 116C58.3031 116 58.2511 115.948 58.2511 115.87C58.2251 114.648 58.1991 113.4 58.1991 112.1C58.1991 111.502 58.1991 110.969 58.1991 110.423C57.6141 110.41 56.9901 110.397 56.7691 110.384C56.6911 110.384 56.6391 110.332 56.6391 110.254C56.6261 109.89 56.6261 109.539 56.6261 109.188ZM63.5285 112.1C63.5285 110.8 63.5415 109.5 63.5805 108.2C63.9835 108.187 64.2825 108.174 64.7115 108.174C65.1535 108.174 65.6085 108.187 66.0505 108.2C66.1155 108.2 66.1805 108.265 66.1805 108.33C66.2065 109.552 66.2325 110.8 66.2325 112.1C66.2325 113.4 66.2065 114.7 66.1805 116C65.7645 116.026 65.4655 116.039 65.0365 116.039C64.5945 116.039 64.1395 116.026 63.7105 116C63.6325 116 63.5805 115.948 63.5805 115.87C63.5545 114.648 63.5285 113.4 63.5285 112.1ZM67.4321 112.1C67.4321 109.552 68.5631 108.2 70.3961 108.109C72.8661 108.109 74.0361 109.097 74.0361 112.1C74.0361 114.661 72.8791 115.987 71.0461 116.078C68.5631 116.078 67.4321 115.116 67.4321 112.1ZM70.1361 112.1C70.1361 113.647 70.3961 113.816 70.7471 113.816C71.0981 113.816 71.3191 113.647 71.3191 112.1C71.3191 110.553 71.0591 110.384 70.7081 110.384C70.3571 110.384 70.1361 110.553 70.1361 112.1ZM75.2326 112.1C75.2326 110.8 75.2456 109.5 75.2846 108.2C75.6876 108.187 75.9216 108.174 76.3506 108.174C76.7276 108.174 77.0656 108.187 77.4816 108.2C77.5466 108.213 77.5856 108.265 77.6246 108.33L78.9636 111.658L78.9246 108.2C79.3276 108.187 79.6266 108.174 80.0556 108.174C80.4976 108.174 80.8746 108.187 81.2646 108.2C81.3296 108.213 81.3946 108.265 81.3946 108.33C81.4206 109.552 81.4466 110.8 81.4466 112.1C81.4466 113.4 81.4206 114.7 81.3946 116C81.0306 116.026 80.8096 116.039 80.3806 116.039C79.9906 116.039 79.6136 116.026 79.1976 116C79.1196 116 79.0806 115.948 79.0546 115.87L77.7026 112.555L77.7546 116C77.3386 116.026 77.1046 116.039 76.6756 116.039C76.2336 116.039 75.8306 116.026 75.4146 116C75.3366 116 75.2846 115.948 75.2846 115.87C75.2586 114.648 75.2326 113.4 75.2326 112.1ZM82.7441 115.922L83.0561 113.582C83.9661 113.868 84.7721 114.037 85.3571 114.037C85.8511 114.037 86.0591 113.777 86.0591 113.569C86.0591 113.309 85.6821 113.205 85.1751 113.062C84.2001 112.789 82.7571 112.373 82.7571 110.371C82.7571 108.265 84.0571 108.109 85.8381 108.109C86.5921 108.109 87.4761 108.226 88.3471 108.395L88.0481 110.566C87.4371 110.293 86.5141 110.033 85.7081 110.033C85.3051 110.033 85.0451 110.163 85.0451 110.397C85.0451 110.631 85.4481 110.748 85.9811 110.904C87.0601 111.229 88.6721 111.71 88.6721 113.517C88.6721 115.584 87.2421 116.065 85.4871 116.065C84.6031 116.065 83.6411 116.026 82.7441 115.922ZM25.598 126.1C25.598 124.8 25.611 123.5 25.65 122.2C26.053 122.187 26.287 122.174 26.716 122.174C27.093 122.174 27.431 122.187 27.847 122.2C27.912 122.213 27.951 122.265 27.99 122.33L29.329 125.658L29.29 122.2C29.693 122.187 29.992 122.174 30.421 122.174C30.863 122.174 31.24 122.187 31.63 122.2C31.695 122.213 31.76 122.265 31.76 122.33C31.786 123.552 31.812 124.8 31.812 126.1C31.812 127.4 31.786 128.7 31.76 130C31.396 130.026 31.175 130.039 30.746 130.039C30.356 130.039 29.979 130.026 29.563 130C29.485 130 29.446 129.948 29.42 129.87L28.068 126.555L28.12 130C27.704 130.026 27.47 130.039 27.041 130.039C26.599 130.039 26.196 130.026 25.78 130C25.702 130 25.65 129.948 25.65 129.87C25.624 128.648 25.598 127.4 25.598 126.1ZM33.0185 126.152C33.0185 124.852 33.0315 123.5 33.0705 122.2C33.4735 122.187 33.7725 122.174 34.2015 122.174C34.6435 122.174 35.0985 122.187 35.5405 122.2C35.6055 122.2 35.6705 122.265 35.6705 122.33C35.6965 123.552 35.7225 125.242 35.7225 126.542C35.7225 127.699 35.8915 127.868 36.2425 127.868C36.5935 127.868 36.7365 127.699 36.7365 126.542C36.7365 125.242 36.7495 123.5 36.7885 122.2C37.1915 122.187 37.4905 122.174 37.9195 122.174C38.3615 122.174 38.8165 122.187 39.2585 122.2C39.3235 122.2 39.3885 122.265 39.3885 122.33C39.4145 123.552 39.4405 124.852 39.4405 126.152C39.4405 128.973 38.3745 130.039 36.5415 130.13C34.1885 130.13 33.0185 129.428 33.0185 126.152ZM40.6536 126.1C40.6536 124.8 40.6666 123.5 40.7056 122.2C41.1086 122.187 41.3426 122.174 41.7716 122.174C42.2136 122.174 42.5126 122.187 42.9026 122.2C42.9676 122.213 43.0196 122.278 43.0456 122.33L44.6706 125.671L46.3086 122.33C46.3476 122.278 46.3996 122.213 46.4646 122.213C46.6986 122.187 47.0106 122.174 47.3746 122.174C47.8166 122.174 48.2196 122.187 48.5836 122.2C48.6486 122.213 48.7136 122.265 48.7136 122.33C48.7396 123.552 48.7656 124.8 48.7656 126.1C48.7656 127.4 48.7396 128.7 48.7136 130C48.3366 130.026 48.1286 130.039 47.6996 130.039C47.3876 130.039 46.9326 130.026 46.5036 130C46.4256 130 46.3736 129.948 46.3736 129.87C46.3476 128.726 46.2956 127.556 46.2956 126.334L44.8136 129.35L44.6706 129.376L44.5406 129.35L43.1236 126.477L43.1756 130C42.7596 130.026 42.5256 130.039 42.0966 130.039C41.7846 130.039 41.2646 130.026 40.8356 130C40.7576 130 40.7056 129.948 40.7056 129.87C40.6796 128.648 40.6536 127.4 40.6536 126.1ZM52.7994 125.06H52.8904C53.2934 125.06 53.6444 124.865 53.6444 124.501C53.6444 124.15 53.3064 123.981 52.9684 123.981C52.9164 123.981 52.8384 123.981 52.8124 123.994C52.7994 124.319 52.7994 124.657 52.7994 125.06ZM52.8124 126.984C52.8124 127.335 52.8254 127.686 52.8384 128.037H53.0464C53.5404 128.037 53.7354 127.842 53.7354 127.504C53.7354 127.205 53.4884 126.984 53.1374 126.984H52.8124ZM50.2514 125.931C50.2514 124.631 50.2774 123.63 50.2774 122.33C51.1354 122.2 52.0844 122.109 52.8124 122.109C54.6194 122.109 55.9454 122.265 55.9454 124.371C55.9454 125.06 55.6594 125.645 55.1914 126.048C55.9064 126.451 56.3354 127.023 56.3354 127.647C56.3354 129.714 54.9314 130.065 53.1764 130.065C52.2924 130.065 51.3044 130.026 50.4074 129.922C50.3294 129.909 50.2774 129.844 50.2774 129.766C50.2774 128.544 50.2514 127.231 50.2514 125.931ZM57.4485 126.1C57.4485 124.8 57.4615 123.5 57.5005 122.2C57.9035 122.187 59.7625 122.174 60.1915 122.174C60.6335 122.174 62.0245 122.187 62.4665 122.2C62.5315 122.2 62.5835 122.265 62.5965 122.33C62.5965 122.733 62.5965 123.097 62.5965 123.461C62.5965 123.773 62.5965 124.085 62.5965 124.41C62.1805 124.436 60.9585 124.436 60.5295 124.436C60.4255 124.436 60.2435 124.436 60.0225 124.436C60.0225 124.657 60.0225 124.891 60.0225 125.125C60.5425 125.125 61.2445 125.138 61.5825 125.138C61.6475 125.138 61.6995 125.203 61.7125 125.268C61.7125 125.632 61.7125 125.944 61.7125 126.256C61.7125 126.529 61.7125 126.802 61.7125 127.114H60.0225C60.0225 127.348 60.0225 127.569 60.0225 127.79H60.1915C60.6335 127.79 62.0505 127.803 62.4925 127.816C62.5575 127.816 62.6095 127.881 62.6225 127.946C62.6225 128.349 62.6225 128.713 62.6225 129.077C62.6225 129.389 62.6225 129.701 62.6225 130.026C62.2065 130.052 60.8155 130.065 60.3865 130.065C59.9445 130.065 58.0595 130.026 57.6305 130C57.5525 130 57.5005 129.948 57.5005 129.87C57.4745 128.648 57.4485 127.4 57.4485 126.1ZM63.8978 125.931C63.8978 124.631 63.9238 123.63 63.9238 122.33C64.7818 122.2 65.8608 122.109 66.5888 122.109C68.5258 122.109 69.8518 122.265 69.8518 124.371C69.8518 125.333 69.3188 126.061 68.4608 126.464C68.7598 126.568 69.0068 126.776 69.1888 127.075C69.6958 128.089 69.9948 129.025 70.2158 130C69.7868 130.052 69.3188 130.078 68.8638 130.078C68.5128 130.078 68.1618 130.065 67.8108 130.039C67.7458 130.039 67.6418 129.987 67.6158 129.909C67.2518 128.804 66.8878 127.699 66.6278 126.802C66.5758 126.802 66.5108 126.802 66.4588 126.802C66.4718 127.868 66.5108 128.986 66.5238 130C66.1338 130.026 65.7568 130.026 65.3798 130.026C64.9378 130.026 64.4958 130.026 64.0538 130C63.9758 130 63.9238 129.948 63.9238 129.87C63.9238 128.648 63.8978 127.231 63.8978 125.931ZM66.4588 125.203H66.6798C67.0828 125.203 67.3688 124.982 67.3688 124.644C67.3688 124.241 67.2388 124.02 66.7708 124.02C66.6668 124.02 66.5498 124.02 66.4588 124.033C66.4588 124.41 66.4588 124.787 66.4588 125.203Z" fill="white"/>
<g filter="url(#filter3_d_357_455)">
<rect x="17" y="151" width="217" height="37" rx="7" fill="#FE8744"/>
</g>
<path d="M227 151C230.866 151 234 154.134 234 158V181C234 184.866 230.866 188 227 188H77L114 151H227Z" fill="#FFBE5E"/>
<path d="M25.598 162.1C25.598 160.8 25.611 159.5 25.65 158.2C26.053 158.187 26.352 158.174 26.781 158.174C27.223 158.174 27.678 158.187 28.12 158.2C28.185 158.2 28.25 158.265 28.25 158.33C28.276 159.552 28.302 160.8 28.302 162.1C28.302 163.4 28.276 164.7 28.25 166C27.834 166.026 27.535 166.039 27.106 166.039C26.664 166.039 26.209 166.026 25.78 166C25.702 166 25.65 165.948 25.65 165.87C25.624 164.648 25.598 163.4 25.598 162.1ZM29.3586 159.188C29.3586 158.876 29.3586 158.551 29.3716 158.2C29.7746 158.187 31.9456 158.174 32.3746 158.174C32.8166 158.174 34.6236 158.187 35.0656 158.2C35.1306 158.2 35.1826 158.265 35.1956 158.33C35.1956 158.707 35.1956 159.071 35.1956 159.448C35.1956 159.76 35.1956 160.085 35.1956 160.41C34.9746 160.423 34.2856 160.436 33.6096 160.436C33.6226 160.969 33.6356 161.502 33.6356 162.1C33.6356 163.4 33.6096 164.7 33.5836 166C33.1676 166.026 32.8686 166.039 32.4396 166.039C31.9976 166.039 31.5426 166.026 31.1136 166C31.0356 166 30.9836 165.948 30.9836 165.87C30.9576 164.648 30.9316 163.4 30.9316 162.1C30.9316 161.502 30.9316 160.969 30.9316 160.423C30.3466 160.41 29.7226 160.397 29.5016 160.384C29.4236 160.384 29.3716 160.332 29.3716 160.254C29.3586 159.89 29.3586 159.539 29.3586 159.188ZM36.261 162.1C36.261 160.8 36.274 159.5 36.313 158.2C36.716 158.187 38.575 158.174 39.004 158.174C39.446 158.174 40.837 158.187 41.279 158.2C41.344 158.2 41.396 158.265 41.409 158.33C41.409 158.733 41.409 159.097 41.409 159.461C41.409 159.773 41.409 160.085 41.409 160.41C40.993 160.436 39.771 160.436 39.342 160.436C39.238 160.436 39.056 160.436 38.835 160.436C38.835 160.657 38.835 160.891 38.835 161.125C39.355 161.125 40.057 161.138 40.395 161.138C40.46 161.138 40.512 161.203 40.525 161.268C40.525 161.632 40.525 161.944 40.525 162.256C40.525 162.529 40.525 162.802 40.525 163.114H38.835C38.835 163.348 38.835 163.569 38.835 163.79H39.004C39.446 163.79 40.863 163.803 41.305 163.816C41.37 163.816 41.422 163.881 41.435 163.946C41.435 164.349 41.435 164.713 41.435 165.077C41.435 165.389 41.435 165.701 41.435 166.026C41.019 166.052 39.628 166.065 39.199 166.065C38.757 166.065 36.872 166.026 36.443 166C36.365 166 36.313 165.948 36.313 165.87C36.287 164.648 36.261 163.4 36.261 162.1ZM42.7104 161.931C42.7104 160.631 42.7364 159.63 42.7364 158.33C43.5944 158.2 44.6734 158.109 45.4014 158.109C47.3384 158.109 48.6644 158.265 48.6644 160.371C48.6644 161.333 48.1314 162.061 47.2734 162.464C47.5724 162.568 47.8194 162.776 48.0014 163.075C48.5084 164.089 48.8074 165.025 49.0284 166C48.5994 166.052 48.1314 166.078 47.6764 166.078C47.3254 166.078 46.9744 166.065 46.6234 166.039C46.5584 166.039 46.4544 165.987 46.4284 165.909C46.0644 164.804 45.7004 163.699 45.4404 162.802C45.3884 162.802 45.3234 162.802 45.2714 162.802C45.2844 163.868 45.3234 164.986 45.3364 166C44.9464 166.026 44.5694 166.026 44.1924 166.026C43.7504 166.026 43.3084 166.026 42.8664 166C42.7884 166 42.7364 165.948 42.7364 165.87C42.7364 164.648 42.7104 163.231 42.7104 161.931ZM45.2714 161.203H45.4924C45.8954 161.203 46.1814 160.982 46.1814 160.644C46.1814 160.241 46.0514 160.02 45.5834 160.02C45.4794 160.02 45.3624 160.02 45.2714 160.033C45.2714 160.41 45.2714 160.787 45.2714 161.203ZM49.5661 165.896C49.5661 165.87 49.6051 165.623 49.6311 165.493C50.0211 163.114 50.5671 160.605 51.0481 158.2C51.6331 158.174 52.2311 158.174 52.8421 158.174C53.4661 158.174 54.0771 158.187 54.7011 158.2C54.7661 158.2 54.8311 158.265 54.8441 158.33C55.3381 160.826 55.9491 163.478 56.3261 166C55.9231 166.026 55.6371 166.039 55.1951 166.039C54.7531 166.039 54.3761 166.039 53.9211 166C53.8561 166 53.7911 165.948 53.7781 165.87C53.6871 165.454 53.6091 165.012 53.5441 164.57H52.3351C52.2571 165.051 52.1791 165.532 52.0881 166C51.6721 166.026 51.4381 166.039 51.0091 166.039C50.5671 166.039 50.1121 166.026 49.6831 166C49.6181 166 49.5661 165.961 49.5661 165.896ZM52.5561 162.88H53.2841C53.1411 161.918 53.0111 160.943 52.8811 159.968C52.7641 160.93 52.6601 161.905 52.5561 162.88ZM56.6261 159.188C56.6261 158.876 56.6261 158.551 56.6391 158.2C57.0421 158.187 59.2131 158.174 59.6421 158.174C60.0841 158.174 61.8911 158.187 62.3331 158.2C62.3981 158.2 62.4501 158.265 62.4631 158.33C62.4631 158.707 62.4631 159.071 62.4631 159.448C62.4631 159.76 62.4631 160.085 62.4631 160.41C62.2421 160.423 61.5531 160.436 60.8771 160.436C60.8901 160.969 60.9031 161.502 60.9031 162.1C60.9031 163.4 60.8771 164.7 60.8511 166C60.4351 166.026 60.1361 166.039 59.7071 166.039C59.2651 166.039 58.8101 166.026 58.3811 166C58.3031 166 58.2511 165.948 58.2511 165.87C58.2251 164.648 58.1991 163.4 58.1991 162.1C58.1991 161.502 58.1991 160.969 58.1991 160.423C57.6141 160.41 56.9901 160.397 56.7691 160.384C56.6911 160.384 56.6391 160.332 56.6391 160.254C56.6261 159.89 56.6261 159.539 56.6261 159.188ZM63.5285 162.1C63.5285 160.8 63.5415 159.5 63.5805 158.2C63.9835 158.187 64.2825 158.174 64.7115 158.174C65.1535 158.174 65.6085 158.187 66.0505 158.2C66.1155 158.2 66.1805 158.265 66.1805 158.33C66.2065 159.552 66.2325 160.8 66.2325 162.1C66.2325 163.4 66.2065 164.7 66.1805 166C65.7645 166.026 65.4655 166.039 65.0365 166.039C64.5945 166.039 64.1395 166.026 63.7105 166C63.6325 166 63.5805 165.948 63.5805 165.87C63.5545 164.648 63.5285 163.4 63.5285 162.1ZM67.4321 162.1C67.4321 159.552 68.5631 158.2 70.3961 158.109C72.8661 158.109 74.0361 159.097 74.0361 162.1C74.0361 164.661 72.8791 165.987 71.0461 166.078C68.5631 166.078 67.4321 165.116 67.4321 162.1ZM70.1361 162.1C70.1361 163.647 70.3961 163.816 70.7471 163.816C71.0981 163.816 71.3191 163.647 71.3191 162.1C71.3191 160.553 71.0591 160.384 70.7081 160.384C70.3571 160.384 70.1361 160.553 70.1361 162.1ZM75.2326 162.1C75.2326 160.8 75.2456 159.5 75.2846 158.2C75.6876 158.187 75.9216 158.174 76.3506 158.174C76.7276 158.174 77.0656 158.187 77.4816 158.2C77.5466 158.213 77.5856 158.265 77.6246 158.33L78.9636 161.658L78.9246 158.2C79.3276 158.187 79.6266 158.174 80.0556 158.174C80.4976 158.174 80.8746 158.187 81.2646 158.2C81.3296 158.213 81.3946 158.265 81.3946 158.33C81.4206 159.552 81.4466 160.8 81.4466 162.1C81.4466 163.4 81.4206 164.7 81.3946 166C81.0306 166.026 80.8096 166.039 80.3806 166.039C79.9906 166.039 79.6136 166.026 79.1976 166C79.1196 166 79.0806 165.948 79.0546 165.87L77.7026 162.555L77.7546 166C77.3386 166.026 77.1046 166.039 76.6756 166.039C76.2336 166.039 75.8306 166.026 75.4146 166C75.3366 166 75.2846 165.948 75.2846 165.87C75.2586 164.648 75.2326 163.4 75.2326 162.1ZM28.198 176.1C28.198 176.737 28.198 177.283 28.211 177.829H28.432C28.783 177.829 29.043 177.647 29.043 176.1C29.043 174.553 28.783 174.384 28.432 174.384H28.211C28.198 174.93 28.198 175.476 28.198 176.1ZM25.624 176.1C25.624 174.8 25.65 173.63 25.65 172.33C26.508 172.2 27.457 172.109 28.185 172.109C30.382 172.109 31.76 173.045 31.76 176.1C31.76 179.35 30.395 180.026 28.211 180.026C27.496 180.026 26.677 179.961 25.78 179.87C25.702 179.87 25.65 179.818 25.65 179.74C25.65 178.518 25.624 177.4 25.624 176.1ZM32.7138 176.152C32.7138 174.852 32.7268 173.5 32.7658 172.2C33.1688 172.187 33.4678 172.174 33.8968 172.174C34.3388 172.174 34.7938 172.187 35.2358 172.2C35.3008 172.2 35.3658 172.265 35.3658 172.33C35.3918 173.552 35.4178 175.242 35.4178 176.542C35.4178 177.699 35.5868 177.868 35.9378 177.868C36.2888 177.868 36.4318 177.699 36.4318 176.542C36.4318 175.242 36.4448 173.5 36.4838 172.2C36.8868 172.187 37.1858 172.174 37.6148 172.174C38.0568 172.174 38.5118 172.187 38.9538 172.2C39.0188 172.2 39.0838 172.265 39.0838 172.33C39.1098 173.552 39.1358 174.852 39.1358 176.152C39.1358 178.973 38.0698 180.039 36.2368 180.13C33.8838 180.13 32.7138 179.428 32.7138 176.152ZM40.3749 175.931C40.3749 174.631 40.4009 173.63 40.4009 172.33C41.2589 172.2 42.3379 172.109 43.0659 172.109C45.0029 172.109 46.3289 172.265 46.3289 174.371C46.3289 175.333 45.7959 176.061 44.9379 176.464C45.2369 176.568 45.4839 176.776 45.6659 177.075C46.1729 178.089 46.4719 179.025 46.6929 180C46.2639 180.052 45.7959 180.078 45.3409 180.078C44.9899 180.078 44.6389 180.065 44.2879 180.039C44.2229 180.039 44.1189 179.987 44.0929 179.909C43.7289 178.804 43.3649 177.699 43.1049 176.802C43.0529 176.802 42.9879 176.802 42.9359 176.802C42.9489 177.868 42.9879 178.986 43.0009 180C42.6109 180.026 42.2339 180.026 41.8569 180.026C41.4149 180.026 40.9729 180.026 40.5309 180C40.4529 180 40.4009 179.948 40.4009 179.87C40.4009 178.648 40.3749 177.231 40.3749 175.931ZM42.9359 175.203H43.1569C43.5599 175.203 43.8459 174.982 43.8459 174.644C43.8459 174.241 43.7159 174.02 43.2479 174.02C43.1439 174.02 43.0269 174.02 42.9359 174.033C42.9359 174.41 42.9359 174.787 42.9359 175.203ZM47.2307 179.896C47.2307 179.87 47.2697 179.623 47.2957 179.493C47.6857 177.114 48.2317 174.605 48.7127 172.2C49.2977 172.174 49.8957 172.174 50.5067 172.174C51.1307 172.174 51.7417 172.187 52.3657 172.2C52.4307 172.2 52.4957 172.265 52.5087 172.33C53.0027 174.826 53.6137 177.478 53.9907 180C53.5877 180.026 53.3017 180.039 52.8597 180.039C52.4177 180.039 52.0407 180.039 51.5857 180C51.5207 180 51.4557 179.948 51.4427 179.87C51.3517 179.454 51.2737 179.012 51.2087 178.57H49.9997C49.9217 179.051 49.8437 179.532 49.7527 180C49.3367 180.026 49.1027 180.039 48.6737 180.039C48.2317 180.039 47.7767 180.026 47.3477 180C47.2827 180 47.2307 179.961 47.2307 179.896ZM50.2207 176.88H50.9487C50.8057 175.918 50.6757 174.943 50.5457 173.968C50.4287 174.93 50.3247 175.905 50.2207 176.88ZM54.2906 173.188C54.2906 172.876 54.2906 172.551 54.3036 172.2C54.7066 172.187 56.8776 172.174 57.3066 172.174C57.7486 172.174 59.5556 172.187 59.9976 172.2C60.0626 172.2 60.1146 172.265 60.1276 172.33C60.1276 172.707 60.1276 173.071 60.1276 173.448C60.1276 173.76 60.1276 174.085 60.1276 174.41C59.9066 174.423 59.2176 174.436 58.5416 174.436C58.5546 174.969 58.5676 175.502 58.5676 176.1C58.5676 177.4 58.5416 178.7 58.5156 180C58.0996 180.026 57.8006 180.039 57.3716 180.039C56.9296 180.039 56.4746 180.026 56.0456 180C55.9676 180 55.9156 179.948 55.9156 179.87C55.8896 178.648 55.8636 177.4 55.8636 176.1C55.8636 175.502 55.8636 174.969 55.8636 174.423C55.2786 174.41 54.6546 174.397 54.4336 174.384C54.3556 174.384 54.3036 174.332 54.3036 174.254C54.2906 173.89 54.2906 173.539 54.2906 173.188ZM61.1931 176.1C61.1931 174.8 61.2061 173.5 61.2451 172.2C61.6481 172.187 61.9471 172.174 62.3761 172.174C62.8181 172.174 63.2731 172.187 63.7151 172.2C63.7801 172.2 63.8451 172.265 63.8451 172.33C63.8711 173.552 63.8971 174.8 63.8971 176.1C63.8971 177.4 63.8711 178.7 63.8451 180C63.4291 180.026 63.1301 180.039 62.7011 180.039C62.2591 180.039 61.8041 180.026 61.3751 180C61.2971 180 61.2451 179.948 61.2451 179.87C61.2191 178.648 61.1931 177.4 61.1931 176.1ZM65.0967 176.1C65.0967 173.552 66.2277 172.2 68.0607 172.109C70.5307 172.109 71.7007 173.097 71.7007 176.1C71.7007 178.661 70.5437 179.987 68.7107 180.078C66.2277 180.078 65.0967 179.116 65.0967 176.1ZM67.8007 176.1C67.8007 177.647 68.0607 177.816 68.4117 177.816C68.7627 177.816 68.9837 177.647 68.9837 176.1C68.9837 174.553 68.7237 174.384 68.3727 174.384C68.0217 174.384 67.8007 174.553 67.8007 176.1ZM72.8972 176.1C72.8972 174.8 72.9102 173.5 72.9492 172.2C73.3522 172.187 73.5862 172.174 74.0152 172.174C74.3922 172.174 74.7302 172.187 75.1462 172.2C75.2112 172.213 75.2502 172.265 75.2892 172.33L76.6282 175.658L76.5892 172.2C76.9922 172.187 77.2912 172.174 77.7202 172.174C78.1622 172.174 78.5392 172.187 78.9292 172.2C78.9942 172.213 79.0592 172.265 79.0592 172.33C79.0852 173.552 79.1112 174.8 79.1112 176.1C79.1112 177.4 79.0852 178.7 79.0592 180C78.6952 180.026 78.4742 180.039 78.0452 180.039C77.6552 180.039 77.2782 180.026 76.8622 180C76.7842 180 76.7452 179.948 76.7192 179.87L75.3672 176.555L75.4192 180C75.0032 180.026 74.7692 180.039 74.3402 180.039C73.8982 180.039 73.4952 180.026 73.0792 180C73.0012 180 72.9492 179.948 72.9492 179.87C72.9232 178.648 72.8972 177.4 72.8972 176.1Z" fill="white"/>
<rect x="17" y="15" width="217" height="23" rx="11.5" fill="#FE9844"/>
<path d="M92.3781 31.892L92.8101 28.652C94.0701 29.048 95.1861 29.282 95.9961 29.282C96.6801 29.282 96.9681 28.922 96.9681 28.634C96.9681 28.274 96.4461 28.13 95.7441 27.932C94.3941 27.554 92.3961 26.978 92.3961 24.206C92.3961 21.29 94.1961 21.074 96.6621 21.074C97.7061 21.074 98.9301 21.236 100.136 21.47L99.7221 24.476C98.8761 24.098 97.5981 23.738 96.4821 23.738C95.9241 23.738 95.5641 23.918 95.5641 24.242C95.5641 24.566 96.1221 24.728 96.8601 24.944C98.3541 25.394 100.586 26.06 100.586 28.562C100.586 31.424 98.6061 32.09 96.1761 32.09C94.9521 32.09 93.6201 32.036 92.3781 31.892ZM102.174 26.6C102.174 24.8 102.192 23 102.246 21.2C102.804 21.182 105.378 21.164 105.972 21.164C106.584 21.164 108.51 21.182 109.122 21.2C109.212 21.2 109.284 21.29 109.302 21.38C109.302 21.938 109.302 22.442 109.302 22.946C109.302 23.378 109.302 23.81 109.302 24.26C108.726 24.296 107.034 24.296 106.44 24.296C106.296 24.296 106.044 24.296 105.738 24.296C105.738 24.602 105.738 24.926 105.738 25.25C106.458 25.25 107.43 25.268 107.898 25.268C107.988 25.268 108.06 25.358 108.078 25.448C108.078 25.952 108.078 26.384 108.078 26.816C108.078 27.194 108.078 27.572 108.078 28.004H105.738C105.738 28.328 105.738 28.634 105.738 28.94H105.972C106.584 28.94 108.546 28.958 109.158 28.976C109.248 28.976 109.32 29.066 109.338 29.156C109.338 29.714 109.338 30.218 109.338 30.722C109.338 31.154 109.338 31.586 109.338 32.036C108.762 32.072 106.836 32.09 106.242 32.09C105.63 32.09 103.02 32.036 102.426 32C102.318 32 102.246 31.928 102.246 31.82C102.21 30.128 102.174 28.4 102.174 26.6ZM110.509 22.568C110.509 22.136 110.509 21.686 110.527 21.2C111.085 21.182 114.091 21.164 114.685 21.164C115.297 21.164 117.799 21.182 118.411 21.2C118.501 21.2 118.573 21.29 118.591 21.38C118.591 21.902 118.591 22.406 118.591 22.928C118.591 23.36 118.591 23.81 118.591 24.26C118.285 24.278 117.331 24.296 116.395 24.296C116.413 25.034 116.431 25.772 116.431 26.6C116.431 28.4 116.395 30.2 116.359 32C115.783 32.036 115.369 32.054 114.775 32.054C114.163 32.054 113.533 32.036 112.939 32C112.831 32 112.759 31.928 112.759 31.82C112.723 30.128 112.687 28.4 112.687 26.6C112.687 25.772 112.687 25.034 112.687 24.278C111.877 24.26 111.013 24.242 110.707 24.224C110.599 24.224 110.527 24.152 110.527 24.044C110.509 23.54 110.509 23.054 110.509 22.568ZM119.509 22.568C119.509 22.136 119.509 21.686 119.527 21.2C120.085 21.182 123.091 21.164 123.685 21.164C124.297 21.164 126.799 21.182 127.411 21.2C127.501 21.2 127.573 21.29 127.591 21.38C127.591 21.902 127.591 22.406 127.591 22.928C127.591 23.36 127.591 23.81 127.591 24.26C127.285 24.278 126.331 24.296 125.395 24.296C125.413 25.034 125.431 25.772 125.431 26.6C125.431 28.4 125.395 30.2 125.359 32C124.783 32.036 124.369 32.054 123.775 32.054C123.163 32.054 122.533 32.036 121.939 32C121.831 32 121.759 31.928 121.759 31.82C121.723 30.128 121.687 28.4 121.687 26.6C121.687 25.772 121.687 25.034 121.687 24.278C120.877 24.26 120.013 24.242 119.707 24.224C119.599 24.224 119.527 24.152 119.527 24.044C119.509 23.54 119.509 23.054 119.509 22.568ZM129.066 26.6C129.066 24.8 129.084 23 129.138 21.2C129.696 21.182 130.11 21.164 130.704 21.164C131.316 21.164 131.946 21.182 132.558 21.2C132.648 21.2 132.738 21.29 132.738 21.38C132.774 23.072 132.81 24.8 132.81 26.6C132.81 28.4 132.774 30.2 132.738 32C132.162 32.036 131.748 32.054 131.154 32.054C130.542 32.054 129.912 32.036 129.318 32C129.21 32 129.138 31.928 129.138 31.82C129.102 30.128 129.066 28.4 129.066 26.6ZM134.831 26.6C134.831 24.8 134.849 23 134.903 21.2C135.461 21.182 135.785 21.164 136.379 21.164C136.901 21.164 137.369 21.182 137.945 21.2C138.035 21.218 138.089 21.29 138.143 21.38L139.997 25.988L139.943 21.2C140.501 21.182 140.915 21.164 141.509 21.164C142.121 21.164 142.643 21.182 143.183 21.2C143.273 21.218 143.363 21.29 143.363 21.38C143.399 23.072 143.435 24.8 143.435 26.6C143.435 28.4 143.399 30.2 143.363 32C142.859 32.036 142.553 32.054 141.959 32.054C141.419 32.054 140.897 32.036 140.321 32C140.213 32 140.159 31.928 140.123 31.82L138.251 27.23L138.323 32C137.747 32.036 137.423 32.054 136.829 32.054C136.217 32.054 135.659 32.036 135.083 32C134.975 32 134.903 31.928 134.903 31.82C134.867 30.128 134.831 28.4 134.831 26.6ZM145.087 26.6C145.087 22.37 146.995 21.074 150.037 21.074C151.045 21.074 152.107 21.2 153.259 21.38L152.881 24.224H149.677C149.191 24.224 148.831 24.458 148.831 26.6C148.831 28.742 149.263 28.976 149.767 28.976H150.127C150.127 28.256 150.073 27.176 150.055 26.24C150.541 26.222 151.009 26.222 151.477 26.222C151.963 26.222 152.467 26.222 153.043 26.24C153.133 26.258 153.205 26.33 153.223 26.42C153.259 27.266 153.295 28.058 153.295 28.94C153.295 29.786 153.259 30.992 153.223 31.694C151.981 31.928 151.297 32.036 150.001 32.036C146.977 32.036 145.087 31.1 145.087 26.6ZM154.986 31.892L155.418 28.652C156.678 29.048 157.794 29.282 158.604 29.282C159.288 29.282 159.576 28.922 159.576 28.634C159.576 28.274 159.054 28.13 158.352 27.932C157.002 27.554 155.004 26.978 155.004 24.206C155.004 21.29 156.804 21.074 159.27 21.074C160.314 21.074 161.538 21.236 162.744 21.47L162.33 24.476C161.484 24.098 160.206 23.738 159.09 23.738C158.532 23.738 158.172 23.918 158.172 24.242C158.172 24.566 158.73 24.728 159.468 24.944C160.962 25.394 163.194 26.06 163.194 28.562C163.194 31.424 161.214 32.09 158.784 32.09C157.56 32.09 156.228 32.036 154.986 31.892Z" fill="white"/>
<defs>
<filter id="filter0_d_357_455" x="0" y="16.8276" width="256" height="231.172" filterUnits="userSpaceOnUse" color-interpolation-filters="sRGB">
<feFlood flood-opacity="0" result="BackgroundImageFix"/>
<feColorMatrix in="SourceAlpha" type="matrix" values="0 0 0 0 0 0 0 0 0 0 0 0 0 0 0 0 0 0 127 0" result="hardAlpha"/>
<feOffset dy="4"/>
<feComposite in2="hardAlpha" operator="out"/>
<feColorMatrix type="matrix" values="0 0 0 0 0 0 0 0 0 0 0 0 0 0 0 0 0 0 0.25 0"/>
<feBlend mode="normal" in2="BackgroundImageFix" result="effect1_dropShadow_357_455"/>
<feBlend mode="normal" in="SourceGraphic" in2="effect1_dropShadow_357_455" result="shape"/>
</filter>
<filter id="filter1_d_357_455" x="17" y="51" width="217" height="39" filterUnits="userSpaceOnUse" color-interpolation-filters="sRGB">
<feFlood flood-opacity="0" result="BackgroundImageFix"/>
<feColorMatrix in="SourceAlpha" type="matrix" values="0 0 0 0 0 0 0 0 0 0 0 0 0 0 0 0 0 0 127 0" result="hardAlpha"/>
<feOffset dy="2"/>
<feComposite in2="hardAlpha" operator="out"/>
<feColorMatrix type="matrix" values="0 0 0 0 0.996078 0 0 0 0 0.423529 0 0 0 0 0.266667 0 0 0 1 0"/>
<feBlend mode="normal" in2="BackgroundImageFix" result="effect1_dropShadow_357_455"/>
<feBlend mode="normal" in="SourceGraphic" in2="effect1_dropShadow_357_455" result="shape"/>
</filter>
<filter id="filter2_d_357_455" x="17" y="101" width="217" height="39" filterUnits="userSpaceOnUse" color-interpolation-filters="sRGB">
<feFlood flood-opacity="0" result="BackgroundImageFix"/>
<feColorMatrix in="SourceAlpha" type="matrix" values="0 0 0 0 0 0 0 0 0 0 0 0 0 0 0 0 0 0 127 0" result="hardAlpha"/>
<feOffset dy="2"/>
<feComposite in2="hardAlpha" operator="out"/>
<feColorMatrix type="matrix" values="0 0 0 0 0.996078 0 0 0 0 0.423529 0 0 0 0 0.266667 0 0 0 1 0"/>
<feBlend mode="normal" in2="BackgroundImageFix" result="effect1_dropShadow_357_455"/>
<feBlend mode="normal" in="SourceGraphic" in2="effect1_dropShadow_357_455" result="shape"/>
</filter>
<filter id="filter3_d_357_455" x="17" y="151" width="217" height="39" filterUnits="userSpaceOnUse" color-interpolation-filters="sRGB">
<feFlood flood-opacity="0" result="BackgroundImageFix"/>
<feColorMatrix in="SourceAlpha" type="matrix" values="0 0 0 0 0 0 0 0 0 0 0 0 0 0 0 0 0 0 127 0" result="hardAlpha"/>
<feOffset dy="2"/>
<feComposite in2="hardAlpha" operator="out"/>
<feColorMatrix type="matrix" values="0 0 0 0 0.996078 0 0 0 0 0.423529 0 0 0 0 0.266667 0 0 0 1 0"/>
<feBlend mode="normal" in2="BackgroundImageFix" result="effect1_dropShadow_357_455"/>
<feBlend mode="normal" in="SourceGraphic" in2="effect1_dropShadow_357_455" result="shape"/>
</filter>
</defs>
</svg>
